# xmcd
# 
# Track frame offsets:
#     182
#     15892
#     32877
#     48965
#     62335
#     73292
#     87995
#     103400
#     115657
#     126470
#     135112
#     149665
#     166672
#     183105
#     196302
#     210432
#     226752
#     238835
#     250207
#     263882
#     278465
#     291802
# 
# Disc length: 4107
# 
# Revision: 2
# Processed by: cddbd v1.5.2PL0 Copyright (c) Steve Scherf et al.
# Submitted via: fre:ac v1.0.27
# 
DISCID=33100916
DTITLE=Various Artist - The Very Best Of Country Volume 2
DYEAR=0
DGENRE=Country
TTITLE0=Kris Kristofferson - Why Me
TTITLE1=Kenny Rogers - Lady
TTITLE2=Exile - Part Of Me That Needs You Most
TTITLE3=Dolly Parton - Here You Come Again
TTITLE4=Willie Nelson - On The Road Again
TTITLE5=Olivia Newton-John - Banks Of Ohio
TTITLE6=Don Williams - I Recall A Gypsey Women
TTITLE7=Billy Joe Spears - What I've Got In Mind
TTITLE8=Don Gibson - Sea Of Heartbreak
TTITLE9=Mac Davis - Tequila Sheila
TTITLE10=Geraldine - Take Me Back
TTITLE11=Dr. Hook - Baby Makes Her Blue Jeans Talk
TTITLE12=Audrey Landers - Manuel Goodbye
TTITLE13=Crystal Gayle - Why Have You Left The One You Left Me For
TTITLE14=Roger Whittaker - Annies Song
TTITLE15=Alan Jackson - Here In The Real World
TTITLE16=Conway Twitty - As Soon As I Hang Up The Phone
TTITLE17=Jim Reeves - Adios Amigo
TTITLE18=Dottie West - What Are We Doing In Love
TTITLE19=Lorne Green - Ringo
TTITLE20=Johnny Cash - If I Were A Carpenter
TTITLE21=Joe Dolan - More and More
EXTD=
EXTT0=Kristofferson, Kris
EXTT1=Rogers, Kenny
EXTT2=Exile
EXTT3=Parton, Dolly
EXTT4=Nelson, Willie
EXTT5=Newton-John, Olivia
EXTT6=Williams, Don
EXTT7=Spears, Billy Joe
EXTT8=Gibson, Don
EXTT9=Davis, Mac
EXTT10=Geraldine
EXTT11=Dr. Hook
EXTT12=Landers, Audrey
EXTT13=Gayle, Crystal
EXTT14=Whittaker, Roger
EXTT15=Jackson, Alan
EXTT16=Twitty, Conway\nLynn, Loretta
EXTT17=Reeves, Jim
EXTT18=West, Dottie
EXTT19=Green, Lorne
EXTT20=Cash, Johnny
EXTT21=Dolan, Joe
PLAYORDER=
